# xmcd
#
# Track frame offsets: 
#        150
#        18087
#        38612
#        56508
#
# Disc length: 1024 seconds
#
# Revision: 2
# Processed by: cddbd v1.5.2PL0 Copyright (c) Steve Scherf et al.
# Submitted via: ExactAudioCopy v1.0b3
#
DISCID=2203fe04
DTITLE=ＭＡＧＩＣ　ＯＦ　ＬｉＦＥ - ＤＯＵＢＬＥ
DYEAR=1900
DGENRE=Anime
TTITLE0=ＤＯＵＢＬＥ
TTITLE1=インプレッション
TTITLE2=ＤＯＵＢＬＥ　（ＩＮＳＴＲＵＭＥＮＴＡＬ）
TTITLE3=インプレッション　（ＩＮＳＴＲＵＭＥＮＴＡＬ）
EXTD=
EXTT0=
EXTT1=
EXTT2=
EXTT3=
PLAYORDER=
